<?xml version="1.0" encoding="utf-8"?>
<!-- Generator: Adobe Illustrator 22.0.0, SVG Export Plug-In . SVG Version: 6.00 Build 0)  -->
<svg version="1.1" xmlns="http://www.w3.org/2000/svg" xmlns:xlink="http://www.w3.org/1999/xlink" x="0px" y="0px"
	 viewBox="0 0 214 105" style="enable-background:new 0 0 214 105;" xml:space="preserve">
<style type="text/css">
	.st0{fill:#FFFFFF;}
	.st1{stroke:#000000;stroke-miterlimit:10;}
	.st2{fill:#FFFFFF;stroke:#FFFFFF;stroke-miterlimit:10;}
</style>
<g id="Layer_1">
	<g>
		<path class="st0" d="M34.8,89.6c2-1.1,7.1-6.9,7.5-15.8V17h-8.8v-1.5h41.1V17h-7.8v41.6c0,2.9-0.3,12.6-0.9,15.2
			c-0.6,2.5-0.8,4.9-5,9.7c-4,4.6-9.3,6.7-13.5,7.5c-3.6,0.7-4.4,0.7-13.5,0.7c-2.3,0-6.5,0-9.1,0c-2.6,0-3.3-0.4-5-1.2
			S16.8,88,16.8,88l11,1.7"/>
		<path class="st0" d="M143.5,59.6l21.6-44h33.4V17h-6.8l0.1,72.7l6.9-0.2h-0.2V91h-37.1v-1.5h4.8V17.6H166l-36.3,73.5L92.4,18.4
			h-0.2v71.1h7.8V91H82.8v-1.5h7.8V17h-7.8v-1.5h37.9"/>
	</g>
</g>
<g id="Layer_2">
	<path class="st2" d="M33,81.2c0,5.2-4.2,9.5-9.5,9.5c-5.2,0-9.5-4.2-9.5-9.5c0-5.2,4.2-9.5,9.5-9.5C28.8,71.7,33,76,33,81.2z"/>
</g>
</svg>
