<?xml version="1.0" encoding="utf-8"?>
<!-- Generator: Adobe Illustrator 22.0.0, SVG Export Plug-In . SVG Version: 6.00 Build 0)  -->
<svg version="1.1" xmlns="http://www.w3.org/2000/svg" xmlns:xlink="http://www.w3.org/1999/xlink" x="0px" y="0px"
	 viewBox="0 0 105.8 78" style="enable-background:new 0 0 105.8 78;" xml:space="preserve">
<style type="text/css">
	.st0{fill:#FFFFFF;}
	.st1{stroke:#000000;stroke-miterlimit:10;}
	.st2{fill:#FFFFFF;stroke:#FFFFFF;stroke-miterlimit:10;}
	.st3{fill:#233032;}
	.st4{fill:none;}
</style>
<g id="Layer_1">
</g>
<g id="Layer_2">
	<rect x="-6.5" y="15" class="st4" width="132" height="50"/>
	<g>
		<path class="st0" d="M12.7,71c4.8,0,7.3-5.2,7.3-15.6V12.2c0-3.5-1.9-5.2-5.8-5.2V6.2h23.3v0.7c-3.9,0-5.8,1.7-5.8,5.2v34.3
			c0,7.4-1.6,13.5-4.8,18.2c-3.2,4.7-7.9,7.1-14.1,7.1c-3.3,0-5.6-1.4-6.9-4.3l0.7-0.3C7.6,69.7,9.7,71,12.7,71z"/>
		<path class="st0" d="M46,10.8h-0.5V42c0,10.3,0.3,12.8,7.9,12.8h1.7V56H35.4v-1.2h0.8c7.7-0.2,7.9-3.4,7.9-12.9V12.5
			c0-4.2-2.2-5.2-6.5-5.2V6.2h21l9.4,23l13.1-23h18v1.2h-4.5v47.5h4.5V56H76.3v-1.2h4.5v-44h-0.5L68.7,30.6l4,9.7
			c0,0,1.6,3.7,1.6,6.4c0,4.8-3,8.6-9.3,8.6c-4.1,0-7.8-1.6-7.8-6.2c0-1.9,1.3-4.1,2.5-6L46,10.8z M61.2,52.9c0.8,0,1.5-0.7,1.5-1.8
			c0-0.9-1-3.4-1.1-3.5l-1.3-3l-0.1,0.1c-0.9,1.5-1.8,3.1-1.8,4.3C58.6,51.6,60.1,52.9,61.2,52.9z"/>
	</g>
</g>
</svg>
